<?xml version="1.0" encoding="UTF-8"?>
<!DOCTYPE svg PUBLIC "-//W3C//DTD SVG 1.1//EN" "http://www.w3.org/Graphics/SVG/1.1/DTD/svg11.dtd">
<!-- Creator: CorelDRAW 2018 -->
<svg xmlns="http://www.w3.org/2000/svg" xml:space="preserve" width="29.5059mm" height="40.8864mm" version="1.1" style="shape-rendering:geometricPrecision; text-rendering:geometricPrecision; image-rendering:optimizeQuality; fill-rule:evenodd; clip-rule:evenodd"
viewBox="0 0 509.54 706.07"
 xmlns:xlink="http://www.w3.org/1999/xlink">
 <defs>
  <style type="text/css">
   <![CDATA[
    .fil0 {fill:#00E18D}
    .fil1 {fill:#00FEAF}
    .fil2 {fill:#FDFDFD}
   ]]>
  </style>
 </defs>
 <g id="Layer_x0020_1">
  <metadata id="CorelCorpID_0Corel-Layer"/>
  <g id="_629213464">
   <path class="fil0" d="M312.41 286.74c0,11.24 -3.12,9.7 -23.4,16.38 -9.21,3.04 -18.72,7.22 -29.05,10.74 -20.15,6.86 -38.69,13.4 -57.25,20.33l-173.1 61.65c-18.96,6.82 -29.67,22.46 -29.61,47.98 0.14,52.65 0.07,105.31 0.07,157.97 0.34,-0.42 0.78,-1.63 0.92,-1.31 0.45,1.05 4.23,-10.72 11.97,-18.36 14.87,-14.68 38.62,-19.16 65.96,-29.31 17.44,-6.47 84.36,-31.93 94.23,-32.54 4.99,-5.72 20.67,-10.07 27.86,-12.69l45.19 -16.48c5.55,-1.94 9.58,-2.65 15.09,-4.8l179.47 -65.22c6.5,-2.34 7.11,-3.12 14.38,-5.51 4.98,-1.64 10.16,-3.58 16.11,-5.78 19.47,-7.2 38.1,-16.61 38.2,-43.36 0.21,-55.03 -0.11,-110.17 -0.11,-165.22 -7.9,6.7 -4.12,14.18 -13.77,23.96 -10.56,10.69 -60.19,25.9 -76.22,31.54l-78.74 28.34c-12.02,4.31 -16.59,6.63 -28.22,1.71z"/>
   <path class="fil1" d="M312.41 286.74c11.63,4.92 16.19,2.6 28.22,-1.71l78.74 -28.34c16.03,-5.63 65.66,-20.85 76.22,-31.54 9.65,-9.77 5.87,-17.26 13.77,-23.96 0,-35.89 -10.18,-39.84 -38.45,-55.06l-43.09 -22.56c-49.35,-25.69 -123.94,-62.52 -170.29,-88.33l-65.63 -33.89c-18.09,-4.96 -34.11,4.32 -43.5,17.92 -11.21,16.25 -7.07,28.9 -7.08,54.59 -0.01,21.22 -0,42.44 0,63.66 0,58.44 -6.73,58.22 41.79,83.54l122.64 64.44c8.29,3.21 1.57,1.55 6.66,1.23z"/>
   <path class="fil2" d="M0.07 601.79c0,19.4 2.8,39.04 20.46,48.43l129.97 47.09c7.27,2.52 21.18,8.25 26.99,8.67 19.28,1.38 36.19,-13.11 41.23,-27.53 5.9,-16.88 7.96,-113.55 -2.14,-130.78 -4.87,-8.3 -9.79,-13.87 -17.89,-17.92 -7.05,-3.52 -18.81,-7.76 -25.54,-9.5 -9.86,0.61 -76.79,26.07 -94.23,32.54 -27.34,10.15 -51.09,14.64 -65.96,29.31 -7.74,7.64 -11.52,19.41 -11.97,18.36 -0.13,-0.31 -0.58,0.9 -0.92,1.31z"/>
  </g>
 </g>
</svg>
