<?xml version="1.0" encoding="UTF-8"?>
<!DOCTYPE svg PUBLIC "-//W3C//DTD SVG 1.1//EN" "http://www.w3.org/Graphics/SVG/1.1/DTD/svg11.dtd">
<!-- Creator: CorelDRAW 2018 -->
<svg xmlns="http://www.w3.org/2000/svg" xml:space="preserve" width="210mm" height="297mm" version="1.1" style="shape-rendering:geometricPrecision; text-rendering:geometricPrecision; image-rendering:optimizeQuality; fill-rule:evenodd; clip-rule:evenodd"
viewBox="0 0 21000 29700"
 xmlns:xlink="http://www.w3.org/1999/xlink">
 <defs>
  <style type="text/css">
   <![CDATA[
    .fil3 {fill:#FEFEFE}
    .fil0 {fill:#00E18D}
    .fil1 {fill:#00FEAF}
    .fil2 {fill:#FDFDFD}
   ]]>
  </style>
 </defs>
 <g id="Layer_x0020_1">
  <metadata id="CorelCorpID_0Corel-Layer"/>
  <g id="_634838080">
   <g>
    <path class="fil0" d="M4194.46 14049.64c0,65.09 -18.07,56.15 -135.5,94.84 -53.36,17.59 -108.4,41.82 -168.22,62.18 -116.66,39.72 -224.05,77.58 -331.54,117.74l-1002.35 357c-109.82,39.52 -171.83,130.05 -171.44,277.83 0.79,304.9 0.42,609.83 0.42,914.74 1.94,-2.42 4.52,-9.42 5.3,-7.61 2.63,6.06 24.52,-62.1 69.32,-106.33 86.1,-84.99 223.66,-110.97 381.97,-169.74 101.01,-37.49 488.53,-184.91 545.65,-188.45 28.87,-33.13 119.71,-58.29 161.35,-73.47l261.71 -95.41c32.13,-11.23 55.45,-15.35 87.39,-27.81l1039.28 -377.67c37.64,-13.53 41.15,-18.07 83.28,-31.91 28.84,-9.49 58.84,-20.73 93.26,-33.47 112.77,-41.71 220.62,-96.19 221.22,-251.09 1.24,-318.67 -0.62,-637.95 -0.62,-956.72 -45.75,38.8 -23.85,82.14 -79.73,138.72 -61.15,61.91 -348.56,150 -441.38,182.62l-455.96 164.11c-69.63,24.96 -96.08,38.37 -163.41,9.9z"/>
    <path class="fil1" d="M4194.46 14049.64c67.33,28.47 93.78,15.06 163.41,-9.9l455.96 -164.11c92.82,-32.62 380.23,-120.71 441.38,-182.62 55.88,-56.58 33.98,-99.92 79.73,-138.72 0,-207.82 -58.96,-230.68 -222.67,-318.83l-249.5 -130.66c-285.76,-148.75 -717.7,-362.04 -986.09,-511.5l-380.07 -196.24c-104.77,-28.74 -197.52,24.99 -251.88,103.76 -64.92,94.08 -40.95,167.33 -40.98,316.13 -0.03,122.88 -0.01,245.76 0,368.64 0.01,338.43 -38.98,337.13 241.99,483.76l710.15 373.16c48,18.57 9.09,8.95 38.57,7.13z"/>
    <path class="fil2" d="M2385.83 15873.97c0,112.33 16.19,226.04 118.5,280.46l752.59 272.69c42.07,14.61 122.62,47.8 156.28,50.2 111.63,7.98 209.56,-75.93 238.74,-159.4 34.17,-97.76 46.12,-657.55 -12.38,-757.28 -28.19,-48.04 -56.69,-80.33 -103.59,-103.77 -40.8,-20.4 -108.95,-44.93 -147.9,-55.03 -57.12,3.54 -444.64,150.96 -545.65,188.45 -158.31,58.77 -295.87,84.75 -381.97,169.74 -44.8,44.23 -66.69,112.39 -69.32,106.33 -0.78,-1.81 -3.36,5.19 -5.3,7.61z"/>
   </g>
   <g>
    <path class="fil3" d="M17584.17 13876l1335.11 0 0 568.13c-342.11,0 -1226.45,49.84 -1448.73,-56.81 0,-207.8 -77.37,-511.32 113.62,-511.32zm-426.09 -426.09c514.42,0 1290.51,-52.84 1761.2,56.81l0 198.84c-635,147.94 -1732.8,-190.63 -1732.8,284.07 0,301.29 -94.37,596.53 454.51,596.53l1562.35 0c0,-1146.04 152.65,-1278.28 -653.35,-1278.28l-1391.91 0 0 142.03z"/>
    <path class="fil3" d="M14771.94 13904.41l-1391.91 0c0,-560.71 -139.51,-482.91 1164.66,-482.91 422.6,0 369.28,90.03 369.28,340.88 0,66.24 -75.79,142.03 -142.03,142.03zm-1675.97 -284.06c0,204.62 -35.82,689.3 53.65,798.53 178.19,217.56 1536.35,138.87 1877.98,138.87l0 -142.02 -1335.1 0c-365.84,0 -312.47,-106.78 -312.47,-369.29l1391.91 0c293.27,0 452.42,-106.7 416.35,-414.29 -28.64,-244.1 -78.51,-352.68 -529.98,-352.68 -337.5,0 -1120.14,-36.98 -1390.19,58.54 -119.43,42.24 -172.15,117.68 -172.15,282.34z"/>
    <path class="fil3" d="M10028.07 13449.91c312.84,0 982.63,-33.86 1249.88,28.4l0 880.6c-390,90.86 -944.56,90.98 -1335.1,0 0,-160.97 0.12,-321.94 0,-482.91 -0.1,-132.71 -53.46,-426.09 85.22,-426.09zm-397.69 198.84c0,422.1 -75.87,785.36 215.03,864.42 234.19,63.64 1392.11,72.43 1591.73,-23.48 84.88,-40.79 116.88,-76.5 126,-186.47 13.49,-162.47 16.25,-780.19 -19.26,-863.2 -111.65,-261.07 -1579.89,-173.05 -1762.45,-94.71 -110.15,47.27 -151.05,158.87 -151.05,303.44z"/>
    <path class="fil3" d="M7386.28 13904.41l-994.23 0 0 -482.91c172,71.06 1164.66,-121.91 1164.66,142.04 0,228.6 39.65,340.87 -170.43,340.87zm-1278.29 653.34l284.06 0c0,-635.81 -155.43,-513.6 852.23,-511.27 532.64,1.23 624.91,-35.72 624.91,-454.54 0,-290.17 -361.08,-312.47 -596.54,-312.47l-1164.66 0 0 1278.28z"/>
    <path class="fil3" d="M15538.91 13222.65l0 85.23c-176.95,0 -316.14,-30.98 -277.93,104.94 24.3,86.44 24.87,37.09 277.93,37.09l0 880.59c0,197.35 222.08,255.66 312.48,255.66l1193.06 0 0 -142.03c-309.09,0 -956.06,33.43 -1221.47,-28.4 -60.16,-258.21 -28.41,-684.29 -28.41,-965.82l1249.88 0 0 -142.03 -1249.88 0 0 -142.03 -184.8 -21.16c-9.14,2.42 -70.86,-25.06 -70.86,77.96z"/>
    <path class="fil3" d="M7982.81 13506.72l0 965.81c0,107.54 66.26,85.22 227.25,85.22 126.95,0 86.75,-176.7 85.46,-312.22 -9.26,-978.41 -222.29,-824.03 1306.45,-824.03 -2.02,-91.03 9.26,-142.03 -85.21,-142.03 -299.95,0 -1533.95,-87.52 -1533.95,227.25z"/>
    <path class="fil3" d="M12698.28 14273.69c0,215.26 -769.35,142.04 -1051.04,142.04l0 142.02c1560.92,0 1335.09,123.1 1335.09,-1278.28l-284.05 0 0 994.22z"/>
    <path class="fil3" d="M8636.16 14927.03l0 568.14c0,79.99 12.29,52.59 56.81,85.21 100.64,-73.73 56.82,-276.89 56.82,-539.72 20.53,29.55 1.84,-8.52 30.26,54.96 16.23,36.26 13.01,30.99 23.86,61.35 50.21,140.39 90.28,362.71 173.12,423.41 83.15,-60.92 84.03,-106.24 120.73,-220.15 28.02,-86.96 68.37,-145.65 78.12,-262.75 95.77,66.55 45.37,36.34 47.96,316.41 0.53,56.54 -6.91,83.31 -0.02,105.46 33.09,106.31 -21.43,29.5 65.69,61.03 58.89,-104.83 28.4,-511.05 28.4,-653.35 0,-108.6 8.72,-10.34 -28.4,-85.21 -147.95,12.31 -135.23,102.34 -181.31,244.78 -37.98,117.37 -76.46,210.47 -102.76,323.34 -122.68,-89.88 -133.71,-639.08 -312.55,-558.27 -46.93,21.2 -56.73,-34.77 -56.73,75.36z"/>
    <path class="fil3" d="M10255.32 15069.07l0 0zm0 0c35.45,40.78 64.68,73.61 102.18,125.07 143.46,196.86 168.46,373.3 323.92,386.24 40.61,-84.63 34.11,-434.16 31.16,-570.88 -3.17,-146.56 20.57,-108.97 -59.57,-167.68 -99.9,73.19 -56.81,251.35 -56.81,511.31 -153.08,-112.16 -241.67,-462.07 -426.09,-511.31 -51.78,107.91 -51.78,630.65 0,738.56 83.47,-22.29 54.66,4.31 76.06,-61.74 39.87,-123.1 -46.59,-333.4 9.15,-449.57z"/>
    <path class="fil3" d="M7982.81 15239.51c0,-82.69 8.36,-179.53 50.56,-233.51 28.76,-36.78 403.94,-272.07 403.94,290.32l0 56.81c-68.02,45.55 -131.89,142.04 -227.25,142.04 -112.21,0 -227.25,-128.99 -227.25,-255.66zm-113.62 -28.41c0,479.52 681.75,494.72 681.75,0 0,-508.67 -681.75,-477.38 -681.75,0z"/>
    <path class="fil3" d="M14061.78 15495.17c-267.89,0 -275.03,-568.14 0,-568.14 343.15,0 343.15,568.14 0,568.14zm-312.47 -284.07c0,504.91 681.75,469.6 681.75,0 0,-465.69 -681.75,-518.92 -681.75,0z"/>
    <path class="fil3" d="M12414.21 15211.1c0,326.84 138.93,223.75 312.47,482.91 -115.1,26.81 -85.53,7.61 -113.63,85.21 373.75,0 147.2,-191.13 142.03,-198.84 218.69,-18.2 227.26,-137.27 284.07,-255.66 -211.78,4.72 -118.13,147.02 -287.33,163.49 -394.74,38.42 -227,-797 117.45,-505.87 67.92,57.4 13.68,76.1 141.47,86.73 -29.36,-352.9 -596.53,-293.66 -596.53,142.03z"/>
    <path class="fil3" d="M15709.35 14983.85c0,183.19 9.86,198.78 181.76,244.34 487.62,129.27 128.59,342.14 -51.05,221.49 -65.11,-43.72 -54.07,-39.83 -73.9,-124.96l-85.22 0c3.62,162.29 86.9,255.66 255.66,255.66 176.02,0 185.52,-47.63 284.07,-113.62l0 -198.84c-279.36,-187.07 -426.1,-125.67 -426.1,-227.26 0,-53.91 94.35,-211.23 289.59,-30.06 16.99,15.77 71.13,133.41 116.68,25.9 73.47,-173.43 -491.49,-304.35 -491.49,-52.65z"/>
    <path class="fil3" d="M16334.29 14927.03c0,386.57 -51.51,653.35 312.47,653.35 306.56,0 255.66,-379.6 255.66,-653.35 0,-79.99 -12.29,-52.59 -56.81,-85.21 -95.86,70.23 -56.77,31.14 -55.46,370.63 1.1,285.97 -110.8,352.47 -342.23,197.49 0,-247.64 41.88,-495.81 -56.82,-568.12 -47.87,33.27 -56.81,4.07 -56.81,85.21z"/>
    <path class="fil3" d="M13408.43 14983.85c7.49,89.98 53.32,217.59 85.22,284.07l-227.25 0c19.83,-41.34 39.34,-100.7 55.93,-142.92 29.03,-73.88 24.22,-95.81 86.1,-141.15zm-312.46 596.53c76.69,-20.48 53.33,4.66 96.45,-73.97 18.17,-33.13 36.89,-116.01 45.57,-153.28l284.07 0c27.42,57.15 57.1,227.25 113.62,227.25 147.87,0 35.17,-128.17 -53.08,-344.61 -61.6,-151.08 -83.44,-314.18 -202.57,-393.95 -5.09,4.42 -13.9,3.57 -16,12.38l-90.68 136.6c-45.62,111.2 -220.51,496.35 -177.38,589.58z"/>
    <path class="fil3" d="M12016.52 14983.85c102.54,75.12 85.18,165.58 142.03,284.07l-227.25 0c36.7,-76.49 82.83,-176.84 85.22,-284.07zm-284.07 596.53c110.32,-9.18 120.2,-11.57 170.44,-227.25l284.07 0c25.69,53.53 70.86,165.64 85.22,227.25l85.21 0c-3.22,-144.77 -146.22,-448.67 -213.9,-609.87 -44.65,-106.36 -25.94,-117.92 -155.38,-128.69 -53.01,227.52 -243.43,591.66 -255.66,738.56z"/>
    <path class="fil3" d="M17300.11 14983.85l85.22 284.07 -198.85 0c8.59,-103.1 43.55,-203.44 113.63,-284.07zm-170.44 369.28l284.06 0c69.47,131.28 32.83,213.43 198.85,227.25 -31.1,-133.46 -91.06,-255.65 -141.72,-369.59 -126.78,-285.24 -144.95,-598.95 -321.1,-150.04 -28.28,72.08 -223.89,480.04 -150.49,507.26 82.51,30.6 114.14,-145.08 130.4,-214.88z"/>
    <path class="fil3" d="M7187.43 15182.69c0,460.4 373.17,451.49 520.64,321.8 85.86,-75.51 59.84,-87.08 104.3,-179.77 -214.87,4.8 -128.59,170.45 -312.47,170.45 -234.23,0 -198.85,-301.69 -198.85,-454.51 146.51,-98.1 196.08,-177.38 337.35,-53.28 74.26,65.23 8.71,70.3 145.56,81.69 -21,-252.45 -333.32,-290.24 -505.47,-136.19 -65.57,58.68 -91.06,132.75 -91.06,249.81z"/>
    <path class="fil3" d="M11079.11 15211.1c0,428.8 531.37,515.26 624.94,113.62 -214.87,4.8 -128.58,170.45 -312.47,170.45 -240.48,0 -240.95,-409.44 -135.62,-504.9 97.53,-88.38 202.23,-82.51 292.68,6.96 72.63,71.86 -7.56,60.64 127.01,71.84 -25.1,-301.48 -402.26,-260.3 -517.81,-120.12 -45.5,55.19 -78.73,165.59 -78.73,262.15z"/>
    <path class="fil3" d="M9715.6 15580.38c91.97,0 147.76,-13.97 211.85,-72.21 18,-16.35 72.22,0.35 72.22,-211.85 0,-416.86 37.61,-421.71 -85.22,-454.5 0,128.18 68.73,653.35 -170.44,653.35 -268.42,0 -198.84,-430.77 -198.84,-653.35l-85.23 0c0,322.59 -84.42,738.56 255.66,738.56z"/>
    <path class="fil3" d="M15027.6 15580.38c92.39,0 84.12,-62.24 114.27,-141.38l226.61 -568.77c-114.71,-24.3 -97.05,-47.05 -195.03,231.06l-145.85 337.06c-24.66,-105.83 -58.65,-191.71 -95.66,-302.03 -38.32,-114.22 -76.57,-180.27 -103.18,-294.5l-85.22 0c2.91,130.55 66.15,254.54 117.5,393.8 18.07,49.01 114.7,344.76 166.56,344.76z"/>
    <path class="fil3" d="M17669.39 14927.03c0,804.74 -28.86,638.25 170.44,638.69 146.87,0.32 204.86,65.96 284.07,-42.15 -56.79,-81.71 -9.83,-56.81 -340.88,-56.81l0 -539.73c0,-79.99 -12.29,-52.59 -56.81,-85.21 -47.88,33.27 -56.82,4.07 -56.82,85.21z"/>
    <path class="fil3" d="M10851.86 14927.03l0 568.14c0,79.99 12.28,52.59 56.81,85.21 47.88,-33.27 56.81,-4.07 56.81,-85.21l0 -568.14c0,-79.99 -12.29,-52.59 -56.81,-85.21 -47.88,33.27 -56.81,4.07 -56.81,85.21z"/>
    <polygon class="fil3" points="15453.7,15580.38 15538.91,15580.38 15538.91,14841.82 15453.7,14841.82 "/>
    <path class="fil3" d="M13208.04 14812.58c343.01,-27.58 303.68,53.53 342.43,-112.8 -112.85,9.39 -68.42,28.41 -142.04,28.41 -73.6,0 -29.19,-19.02 -142.03,-28.41l-58.36 112.8z"/>
   </g>
  </g>
 </g>
</svg>
