<svg width="16829" height="4089.0000000000005" xmlns="http://www.w3.org/2000/svg" version="1.1" xml:space="preserve">

 <g>
  <title>Layer 1</title>
  <g id="Layer_x0020_1">
   <metadata id="CorelCorpID_0Corel-Layer"/>
   <g id="_634838080">
    <g id="svg_1">
     <path id="svg_2" fill="#00E18D" d="m1809.05177,1660.42709c0,65.09 -18.07,56.15 -135.5,94.84c-53.36,17.59 -108.4,41.82 -168.22,62.18c-116.66,39.72 -224.05,77.58 -331.54,117.74l-1002.35,357c-109.82,39.52 -171.83,130.05 -171.44,277.83c0.79,304.9 0.42,609.83 0.42,914.74c1.94,-2.42 4.52,-9.42 5.3,-7.61c2.63,6.06 24.52,-62.1 69.32,-106.33c86.1,-84.99 223.66,-110.97 381.97,-169.74c101.01,-37.49 488.53,-184.91 545.65,-188.45c28.87,-33.13 119.71,-58.29 161.35,-73.47l261.71,-95.41c32.13,-11.23 55.45,-15.35 87.39,-27.81l1039.28,-377.67c37.64,-13.53 41.15,-18.07 83.28,-31.91c28.84,-9.49 58.84,-20.73 93.26,-33.47c112.77,-41.71 220.62,-96.19 221.22,-251.09c1.24,-318.67 -0.62,-637.95 -0.62,-956.72c-45.75,38.8 -23.85,82.14 -79.73,138.72c-61.15,61.91 -348.56,150 -441.38,182.62l-455.96,164.11c-69.63,24.96 -96.08,38.37 -163.41,9.9z" class="fil0"/>
     <path id="svg_3" fill="#00FEAF" d="m1809.05177,1660.42709c67.33,28.47 93.78,15.06 163.41,-9.9l455.96,-164.11c92.82,-32.62 380.23,-120.71 441.38,-182.62c55.88,-56.58 33.98,-99.92 79.73,-138.72c0,-207.82 -58.96,-230.68 -222.67,-318.83l-249.5,-130.66c-285.76,-148.75 -717.7,-362.04 -986.09,-511.5l-380.07,-196.24c-104.77,-28.74 -197.52,24.99 -251.88,103.76c-64.92,94.08 -40.95,167.33 -40.98,316.13c-0.03,122.88 -0.01,245.76 0,368.64c0.01,338.43 -38.98,337.13 241.99,483.76l710.15,373.16c48,18.57 9.09,8.95 38.57,7.13z" class="fil1"/>
     <path id="svg_4" fill="#FDFDFD" d="m0.42177,3484.75709c0,112.33 16.19,226.04 118.5,280.46l752.59,272.69c42.07,14.61 122.62,47.8 156.28,50.2c111.63,7.98 209.56,-75.93 238.74,-159.4c34.17,-97.76 46.12,-657.55 -12.38,-757.28c-28.19,-48.04 -56.69,-80.33 -103.59,-103.77c-40.8,-20.4 -108.95,-44.93 -147.9,-55.03c-57.12,3.54 -444.64,150.96 -545.65,188.45c-158.31,58.77 -295.87,84.75 -381.97,169.74c-44.8,44.23 -66.69,112.39 -69.32,106.33c-0.78,-1.81 -3.36,5.19 -5.3,7.61z" class="fil2"/>
    </g>
    <g id="svg_5">
     <path id="svg_6" fill="#FEFEFE" d="m15198.76177,1486.78709l1335.11,0l0,568.13c-342.11,0 -1226.45,49.84 -1448.73,-56.81c0,-207.8 -77.37,-511.32 113.62,-511.32zm-426.09,-426.09c514.42,0 1290.51,-52.84 1761.2,56.81l0,198.84c-635,147.94 -1732.8,-190.63 -1732.8,284.07c0,301.29 -94.37,596.53 454.51,596.53l1562.35,0c0,-1146.04 152.65,-1278.28 -653.35,-1278.28l-1391.91,0l0,142.03z" class="fil3"/>
     <path id="svg_7" fill="#FEFEFE" d="m12386.53177,1515.19709l-1391.91,0c0,-560.71 -139.51,-482.91 1164.66,-482.91c422.6,0 369.28,90.03 369.28,340.88c0,66.24 -75.79,142.03 -142.03,142.03zm-1675.97,-284.06c0,204.62 -35.82,689.3 53.65,798.53c178.19,217.56 1536.35,138.87 1877.98,138.87l0,-142.02l-1335.1,0c-365.84,0 -312.47,-106.78 -312.47,-369.29l1391.91,0c293.27,0 452.42,-106.7 416.35,-414.29c-28.64,-244.1 -78.51,-352.68 -529.98,-352.68c-337.5,0 -1120.14,-36.98 -1390.19,58.54c-119.43,42.24 -172.15,117.68 -172.15,282.34z" class="fil3"/>
     <path id="svg_8" fill="#FEFEFE" d="m7642.66177,1060.69709c312.84,0 982.63,-33.86 1249.88,28.4l0,880.6c-390,90.86 -944.56,90.98 -1335.1,0c0,-160.97 0.12,-321.94 0,-482.91c-0.1,-132.71 -53.46,-426.09 85.22,-426.09zm-397.69,198.84c0,422.1 -75.87,785.36 215.03,864.42c234.19,63.64 1392.11,72.43 1591.73,-23.48c84.88,-40.79 116.88,-76.5 126,-186.47c13.49,-162.47 16.25,-780.19 -19.26,-863.2c-111.65,-261.07 -1579.89,-173.05 -1762.45,-94.71c-110.15,47.27 -151.05,158.87 -151.05,303.44z" class="fil3"/>
     <path id="svg_9" fill="#FEFEFE" d="m5000.87177,1515.19709l-994.23,0l0,-482.91c172,71.06 1164.66,-121.91 1164.66,142.04c0,228.6 39.65,340.87 -170.43,340.87zm-1278.29,653.34l284.06,0c0,-635.81 -155.43,-513.6 852.23,-511.27c532.64,1.23 624.91,-35.72 624.91,-454.54c0,-290.17 -361.08,-312.47 -596.54,-312.47l-1164.66,0l0,1278.28z" class="fil3"/>
     <path id="svg_10" fill="#FEFEFE" d="m13153.50177,833.43709l0,85.23c-176.95,0 -316.14,-30.98 -277.93,104.94c24.3,86.44 24.87,37.09 277.93,37.09l0,880.59c0,197.35 222.08,255.66 312.48,255.66l1193.06,0l0,-142.03c-309.09,0 -956.06,33.43 -1221.47,-28.4c-60.16,-258.21 -28.41,-684.29 -28.41,-965.82l1249.88,0l0,-142.03l-1249.88,0l0,-142.03l-184.8,-21.16c-9.14,2.42 -70.86,-25.06 -70.86,77.96z" class="fil3"/>
     <path id="svg_11" fill="#FEFEFE" d="m5597.40177,1117.50709l0,965.81c0,107.54 66.26,85.22 227.25,85.22c126.95,0 86.75,-176.7 85.46,-312.22c-9.26,-978.41 -222.29,-824.03 1306.45,-824.03c-2.02,-91.03 9.26,-142.03 -85.21,-142.03c-299.95,0 -1533.95,-87.52 -1533.95,227.25z" class="fil3"/>
     <path id="svg_12" fill="#FEFEFE" d="m10312.87177,1884.47709c0,215.26 -769.35,142.04 -1051.04,142.04l0,142.02c1560.92,0 1335.09,123.1 1335.09,-1278.28l-284.05,0l0,994.22z" class="fil3"/>
     <path id="svg_13" fill="#FEFEFE" d="m6250.75177,2537.81709l0,568.14c0,79.99 12.29,52.59 56.81,85.21c100.64,-73.73 56.82,-276.89 56.82,-539.72c20.53,29.55 1.84,-8.52 30.26,54.96c16.23,36.26 13.01,30.99 23.86,61.35c50.21,140.39 90.28,362.71 173.12,423.41c83.15,-60.92 84.03,-106.24 120.73,-220.15c28.02,-86.96 68.37,-145.65 78.12,-262.75c95.77,66.55 45.37,36.34 47.96,316.41c0.53,56.54 -6.91,83.31 -0.02,105.46c33.09,106.31 -21.43,29.5 65.69,61.03c58.89,-104.83 28.4,-511.05 28.4,-653.35c0,-108.6 8.72,-10.34 -28.4,-85.21c-147.95,12.31 -135.23,102.34 -181.31,244.78c-37.98,117.37 -76.46,210.47 -102.76,323.34c-122.68,-89.88 -133.71,-639.08 -312.55,-558.27c-46.93,21.2 -56.73,-34.77 -56.73,75.36z" class="fil3"/>
     <path id="svg_14" fill="#FEFEFE" d="m7869.91177,2679.85709l0,0zm0,0c35.45,40.78 64.68,73.61 102.18,125.07c143.46,196.86 168.46,373.3 323.92,386.24c40.61,-84.63 34.11,-434.16 31.16,-570.88c-3.17,-146.56 20.57,-108.97 -59.57,-167.68c-99.9,73.19 -56.81,251.35 -56.81,511.31c-153.08,-112.16 -241.67,-462.07 -426.09,-511.31c-51.78,107.91 -51.78,630.65 0,738.56c83.47,-22.29 54.66,4.31 76.06,-61.74c39.87,-123.1 -46.59,-333.4 9.15,-449.57z" class="fil3"/>
     <path id="svg_15" fill="#FEFEFE" d="m5597.40177,2850.29709c0,-82.69 8.36,-179.53 50.56,-233.51c28.76,-36.78 403.94,-272.07 403.94,290.32l0,56.81c-68.02,45.55 -131.89,142.04 -227.25,142.04c-112.21,0 -227.25,-128.99 -227.25,-255.66zm-113.62,-28.41c0,479.52 681.75,494.72 681.75,0c0,-508.67 -681.75,-477.38 -681.75,0z" class="fil3"/>
     <path id="svg_16" fill="#FEFEFE" d="m11676.37177,3105.95709c-267.89,0 -275.03,-568.14 0,-568.14c343.15,0 343.15,568.14 0,568.14zm-312.47,-284.07c0,504.91 681.75,469.6 681.75,0c0,-465.69 -681.75,-518.92 -681.75,0z" class="fil3"/>
     <path id="svg_17" fill="#FEFEFE" d="m10028.80177,2821.88709c0,326.84 138.93,223.75 312.47,482.91c-115.1,26.81 -85.53,7.61 -113.63,85.21c373.75,0 147.2,-191.13 142.03,-198.84c218.69,-18.2 227.26,-137.27 284.07,-255.66c-211.78,4.72 -118.13,147.02 -287.33,163.49c-394.74,38.42 -227,-797 117.45,-505.87c67.92,57.4 13.68,76.1 141.47,86.73c-29.36,-352.9 -596.53,-293.66 -596.53,142.03z" class="fil3"/>
     <path id="svg_18" fill="#FEFEFE" d="m13323.94177,2594.63709c0,183.19 9.86,198.78 181.76,244.34c487.62,129.27 128.59,342.14 -51.05,221.49c-65.11,-43.72 -54.07,-39.83 -73.9,-124.96l-85.22,0c3.62,162.29 86.9,255.66 255.66,255.66c176.02,0 185.52,-47.63 284.07,-113.62l0,-198.84c-279.36,-187.07 -426.1,-125.67 -426.1,-227.26c0,-53.91 94.35,-211.23 289.59,-30.06c16.99,15.77 71.13,133.41 116.68,25.9c73.47,-173.43 -491.49,-304.35 -491.49,-52.65z" class="fil3"/>
     <path id="svg_19" fill="#FEFEFE" d="m13948.88177,2537.81709c0,386.57 -51.51,653.35 312.47,653.35c306.56,0 255.66,-379.6 255.66,-653.35c0,-79.99 -12.29,-52.59 -56.81,-85.21c-95.86,70.23 -56.77,31.14 -55.46,370.63c1.1,285.97 -110.8,352.47 -342.23,197.49c0,-247.64 41.88,-495.81 -56.82,-568.12c-47.87,33.27 -56.81,4.07 -56.81,85.21z" class="fil3"/>
     <path id="svg_20" fill="#FEFEFE" d="m11023.02177,2594.63709c7.49,89.98 53.32,217.59 85.22,284.07l-227.25,0c19.83,-41.34 39.34,-100.7 55.93,-142.92c29.03,-73.88 24.22,-95.81 86.1,-141.15zm-312.46,596.53c76.69,-20.48 53.33,4.66 96.45,-73.97c18.17,-33.13 36.89,-116.01 45.57,-153.28l284.07,0c27.42,57.15 57.1,227.25 113.62,227.25c147.87,0 35.17,-128.17 -53.08,-344.61c-61.6,-151.08 -83.44,-314.18 -202.57,-393.95c-5.09,4.42 -13.9,3.57 -16,12.38l-90.68,136.6c-45.62,111.2 -220.51,496.35 -177.38,589.58z" class="fil3"/>
     <path id="svg_21" fill="#FEFEFE" d="m9631.11177,2594.63709c102.54,75.12 85.18,165.58 142.03,284.07l-227.25,0c36.7,-76.49 82.83,-176.84 85.22,-284.07zm-284.07,596.53c110.32,-9.18 120.2,-11.57 170.44,-227.25l284.07,0c25.69,53.53 70.86,165.64 85.22,227.25l85.21,0c-3.22,-144.77 -146.22,-448.67 -213.9,-609.87c-44.65,-106.36 -25.94,-117.92 -155.38,-128.69c-53.01,227.52 -243.43,591.66 -255.66,738.56z" class="fil3"/>
     <path id="svg_22" fill="#FEFEFE" d="m14914.70177,2594.63709l85.22,284.07l-198.85,0c8.59,-103.1 43.55,-203.44 113.63,-284.07zm-170.44,369.28l284.06,0c69.47,131.28 32.83,213.43 198.85,227.25c-31.1,-133.46 -91.06,-255.65 -141.72,-369.59c-126.78,-285.24 -144.95,-598.95 -321.1,-150.04c-28.28,72.08 -223.89,480.04 -150.49,507.26c82.51,30.6 114.14,-145.08 130.4,-214.88z" class="fil3"/>
     <path id="svg_23" fill="#FEFEFE" d="m4802.02177,2793.47709c0,460.4 373.17,451.49 520.64,321.8c85.86,-75.51 59.84,-87.08 104.3,-179.77c-214.87,4.8 -128.59,170.45 -312.47,170.45c-234.23,0 -198.85,-301.69 -198.85,-454.51c146.51,-98.1 196.08,-177.38 337.35,-53.28c74.26,65.23 8.71,70.3 145.56,81.69c-21,-252.45 -333.32,-290.24 -505.47,-136.19c-65.57,58.68 -91.06,132.75 -91.06,249.81z" class="fil3"/>
     <path id="svg_24" fill="#FEFEFE" d="m8693.70177,2821.88709c0,428.8 531.37,515.26 624.94,113.62c-214.87,4.8 -128.58,170.45 -312.47,170.45c-240.48,0 -240.95,-409.44 -135.62,-504.9c97.53,-88.38 202.23,-82.51 292.68,6.96c72.63,71.86 -7.56,60.64 127.01,71.84c-25.1,-301.48 -402.26,-260.3 -517.81,-120.12c-45.5,55.19 -78.73,165.59 -78.73,262.15z" class="fil3"/>
     <path id="svg_25" fill="#FEFEFE" d="m7330.19177,3191.16709c91.97,0 147.76,-13.97 211.85,-72.21c18,-16.35 72.22,0.35 72.22,-211.85c0,-416.86 37.61,-421.71 -85.22,-454.5c0,128.18 68.73,653.35 -170.44,653.35c-268.42,0 -198.84,-430.77 -198.84,-653.35l-85.23,0c0,322.59 -84.42,738.56 255.66,738.56z" class="fil3"/>
     <path id="svg_26" fill="#FEFEFE" d="m12642.19177,3191.16709c92.39,0 84.12,-62.24 114.27,-141.38l226.61,-568.77c-114.71,-24.3 -97.05,-47.05 -195.03,231.06l-145.85,337.06c-24.66,-105.83 -58.65,-191.71 -95.66,-302.03c-38.32,-114.22 -76.57,-180.27 -103.18,-294.5l-85.22,0c2.91,130.55 66.15,254.54 117.5,393.8c18.07,49.01 114.7,344.76 166.56,344.76z" class="fil3"/>
     <path id="svg_27" fill="#FEFEFE" d="m15283.98177,2537.81709c0,804.74 -28.86,638.25 170.44,638.69c146.87,0.32 204.86,65.96 284.07,-42.15c-56.79,-81.71 -9.83,-56.81 -340.88,-56.81l0,-539.73c0,-79.99 -12.29,-52.59 -56.81,-85.21c-47.88,33.27 -56.82,4.07 -56.82,85.21z" class="fil3"/>
     <path id="svg_28" fill="#FEFEFE" d="m8466.45177,2537.81709l0,568.14c0,79.99 12.28,52.59 56.81,85.21c47.88,-33.27 56.81,-4.07 56.81,-85.21l0,-568.14c0,-79.99 -12.29,-52.59 -56.81,-85.21c-47.88,33.27 -56.81,4.07 -56.81,85.21z" class="fil3"/>
     <polygon id="svg_29" fill="#FEFEFE" points="13068.291595458984,3191.1670989990234 13153.501556396484,3191.1670989990234 13153.501556396484,2452.6075286865234 13068.291595458984,2452.6075286865234 " class="fil3"/>
     <path id="svg_30" fill="#FEFEFE" d="m10822.63177,2423.36709c343.01,-27.58 303.68,53.53 342.43,-112.8c-112.85,9.39 -68.42,28.41 -142.04,28.41c-73.6,0 -29.19,-19.02 -142.03,-28.41l-58.36,112.8z" class="fil3"/>
    </g>
   </g>
  </g>
 </g>
</svg>